<svg xmlns="http://www.w3.org/2000/svg" viewBox="0 0 498 498"><path fill="#000" fill-rule="evenodd" d="M 182 26 C 169 29,159 40,156 53 C 148 84,169 134,192 137 C 197 137,199 140,199 146 C 199 151,198 155,195 156 C 194 156,192 158,190 160 L 187 165 187 180 C 187 198,188 200,193 204 C 198 208,199 212,199 222 C 198 229,198 229,194 234 C 186 241,185 241,180 226 C 177 218,174 208,168 192 C 166 188,164 182,162 178 C 156 161,149 152,140 150 C 126 148,115 157,108 176 C 107 179,104 186,102 192 C 99 199,96 205,96 206 C 95 208,94 211,93 214 C 91 217,90 221,84 236 C 82 240,80 247,78 251 C 76 255,74 261,72 264 C 71 268,69 272,68 274 C 67 277,66 280,66 288 C 66 298,67 299,70 304 C 76 315,82 318,113 329 C 117 331,122 332,123 333 C 128 336,159 342,174 342 C 185 343,185 344,187 349 C 188 351,191 356,194 358 L 199 364 199 373 L 199 381 193 388 L 187 394 187 411 L 187 428 193 435 L 199 441 199 450 C 198 459,199 463,202 466 C 204 468,292 468,295 466 C 298 464,299 461,299 451 L 299 440 304 436 C 311 429,311 428,311 411 C 311 394,311 393,304 386 L 299 382 299 373 L 299 364 304 358 C 308 355,310 352,311 349 C 312 344,313 343,328 342 C 344 341,367 336,383 330 C 403 323,404 322,410 320 C 431 310,436 292,426 266 C 421 253,419 248,416 242 C 415 239,414 236,414 236 C 414 236,413 233,412 230 C 410 227,408 222,407 219 C 406 216,404 210,402 206 C 400 202,398 196,396 192 C 395 189,393 184,392 182 C 391 180,390 178,390 177 C 390 176,388 172,386 167 C 378 151,363 146,350 154 C 342 160,341 162,330 192 C 328 197,326 204,324 208 C 322 213,320 221,318 226 C 312 241,311 242,304 233 L 300 229 300 219 L 300 209 303 205 C 311 199,311 198,311 181 C 311 164,310 159,303 156 C 300 154,299 151,299 145 C 299 140,301 138,306 137 C 329 132,349 86,342 54 C 338 33,316 20,301 28 C 293 33,284 46,282 57 C 281 64,278 66,272 67 C 267 67,258 72,255 75 C 251 79,245 80,243 76 C 242 73,231 67,226 67 C 219 66,217 64,216 57 C 212 39,195 23,182 26 M 180 40 C 168 48,164 60,168 81 C 171 100,183 120,193 124 C 194 125,218 125,249 125 C 301 125,303 125,307 123 C 313 120,322 108,326 97 C 336 70,333 50,318 40 C 313 36,310 37,305 41 C 298 48,295 55,292 69 C 292 76,289 77,280 78 C 270 79,263 83,257 90 C 251 99,248 99,241 91 C 234 82,227 79,219 78 C 207 78,206 77,205 64 C 203 54,196 42,189 38 C 185 36,185 37,180 40 M 214 138 C 211 140,210 148,212 152 L 214 154 248 154 C 282 154,283 154,285 152 C 288 149,288 140,284 138 C 280 136,218 136,214 138 M 128 165 C 124 169,122 174,114 196 C 107 211,106 215,104 219 C 102 222,101 225,101 226 C 101 226,99 232,96 238 C 94 244,91 251,90 254 C 90 256,88 260,87 263 C 79 280,78 284,78 290 C 79 301,85 306,106 314 C 135 324,134 324,149 326 C 175 331,187 332,193 327 C 196 325,213 320,224 317 C 250 313,293 318,305 327 C 309 330,313 331,324 330 C 335 329,360 325,367 322 C 402 311,412 306,416 300 C 421 292,421 286,415 272 C 413 266,410 259,409 256 C 407 252,406 248,405 247 C 405 246,403 242,402 239 C 400 235,398 229,396 225 C 394 221,392 215,391 212 C 390 209,388 204,386 201 C 385 198,384 195,384 195 C 384 194,383 192,382 190 C 381 188,380 185,379 182 C 372 162,361 157,352 171 C 351 172,349 177,348 181 C 346 184,344 191,342 196 C 340 201,338 208,336 212 C 334 216,332 223,330 228 C 328 233,326 239,324 243 C 318 260,316 263,310 266 C 291 275,244 277,209 271 C 186 267,184 266,179 256 C 177 252,174 246,174 244 C 173 242,170 235,168 230 C 166 225,164 217,162 212 C 160 208,158 201,156 196 C 154 191,152 184,150 181 C 145 164,136 159,128 165 M 201 169 C 199 170,199 172,199 181 C 199 198,194 196,249 196 L 295 196 297 193 C 300 190,300 171,297 169 C 294 166,203 166,201 169 M 212 210 C 210 212,211 226,213 228 C 214 230,219 230,249 230 C 290 230,287 231,287 220 C 287 208,290 209,249 209 C 223 209,213 209,212 210 M 136 222 C 129 228,126 228,120 222 C 117 219,114 218,111 221 C 104 226,119 240,130 238 C 136 238,142 234,146 229 C 148 225,148 224,145 220 C 142 217,141 217,136 222 M 201 245 C 200 246,199 248,199 251 C 199 256,201 257,214 260 C 227 263,268 264,278 261 C 281 260,286 260,289 259 C 297 258,299 256,299 251 C 299 248,298 247,296 245 C 292 242,204 242,201 245 M 133 253 C 129 257,135 266,143 270 C 155 275,175 264,169 254 C 166 251,163 251,158 256 C 155 258,153 259,151 259 C 149 259,147 258,144 256 C 140 252,136 251,133 253 M 330 254 C 324 260,335 271,346 271 C 353 271,357 269,362 265 C 371 256,364 247,354 256 C 348 260,343 260,339 254 C 336 252,332 251,330 254 M 122 275 C 121 275,119 277,117 279 C 112 283,108 283,104 278 C 100 275,95 274,92 276 C 87 281,100 294,110 294 C 120 294,133 282,129 277 C 127 275,124 274,122 275 M 372 275 C 366 278,367 282,375 289 C 380 294,387 295,393 293 C 398 292,407 283,407 281 C 407 274,400 273,394 278 C 389 283,386 283,381 279 C 376 274,375 274,372 275 M 231 289 C 228 292,228 293,232 298 C 237 304,240 305,246 306 C 255 306,259 305,264 300 C 273 290,266 282,256 290 C 253 293,251 294,249 294 C 246 294,244 293,242 290 C 238 286,234 286,231 289 M 180 293 C 179 294,176 295,175 297 C 171 301,167 301,163 296 C 159 293,154 292,151 294 C 146 300,158 312,169 312 C 181 312,193 299,186 294 C 183 292,183 292,180 293 M 312 294 C 305 299,317 312,329 312 C 340 312,352 300,347 294 C 344 292,339 293,335 296 C 330 301,327 301,322 297 C 318 292,315 292,312 294 M 228 330 C 218 331,205 335,201 338 C 199 339,199 340,199 343 C 200 349,199 349,250 349 C 300 348,299 348,299 343 C 299 339,297 337,288 334 C 273 328,248 327,228 330 M 213 363 C 210 366,210 380,212 382 C 214 383,223 383,249 383 C 290 383,287 384,287 372 C 287 360,289 361,249 361 C 216 361,215 361,213 363 M 201 398 C 198 401,198 422,201 424 C 204 427,295 427,297 424 C 300 421,300 400,297 398 C 294 395,203 395,201 398 M 213 440 C 210 442,210 450,213 453 C 215 455,216 455,249 455 C 288 455,287 455,287 446 C 287 438,289 438,249 438 C 219 438,214 438,213 440"/></svg>
