<svg xmlns="http://www.w3.org/2000/svg" viewBox="0 0 498 498"><path fill="#000" fill-rule="evenodd" d="M 154 13 C 154 13,152 15,150 18 C 146 23,146 23,146 31 C 146 36,147 44,147 48 C 148 53,149 60,150 66 C 150 70,152 78,154 82 C 155 87,156 91,156 92 C 156 93,157 97,159 101 C 161 105,162 109,162 110 C 162 111,163 114,164 116 C 166 118,167 122,168 124 C 169 127,170 130,171 131 C 172 132,173 135,174 136 C 174 138,176 141,177 143 C 179 146,180 148,180 148 C 180 149,181 151,183 154 C 185 156,186 158,186 158 C 186 159,187 161,189 163 C 191 165,192 167,192 168 C 192 168,193 170,195 172 C 197 175,198 177,198 178 C 198 178,199 181,200 183 C 205 193,207 211,204 228 C 203 237,202 241,197 252 C 191 264,178 279,166 289 C 162 292,157 296,156 298 C 154 299,152 300,152 300 C 151 300,149 301,147 303 C 144 305,142 306,142 306 C 141 306,138 307,136 309 C 134 311,131 312,130 312 C 129 312,127 313,124 315 C 122 316,118 318,117 318 C 116 319,113 320,112 322 C 110 323,108 324,108 324 C 103 324,74 350,65 362 C 63 364,60 368,58 371 C 56 373,54 376,52 378 C 46 388,44 393,43 395 C 42 396,40 400,39 403 C 37 406,36 410,36 411 C 36 412,35 415,33 418 C 32 421,30 426,30 430 C 29 433,28 438,27 442 C 26 445,25 451,24 458 L 24 469 27 472 C 33 479,33 479,59 480 L 83 480 86 477 C 90 474,94 464,96 452 C 96 449,98 445,99 443 C 100 441,101 437,102 435 C 103 433,104 430,105 428 C 106 427,108 424,108 423 C 112 417,116 416,125 419 C 129 420,134 422,136 424 C 138 425,140 426,141 426 C 142 426,148 430,156 435 C 158 437,160 438,161 438 C 161 438,163 439,165 441 C 168 443,170 444,170 444 C 171 444,173 445,175 446 C 178 448,181 450,184 450 C 186 450,190 452,193 453 C 199 455,235 460,248 460 C 253 460,262 459,269 459 C 275 458,284 457,290 456 C 296 455,302 454,305 453 C 308 452,312 451,316 450 C 319 449,324 448,327 446 C 330 445,333 444,334 444 C 336 444,340 442,352 436 C 354 435,358 433,360 432 C 363 430,368 428,370 426 C 372 424,376 422,377 421 C 389 414,413 390,422 376 C 424 373,426 369,428 368 C 430 364,436 354,437 351 C 438 350,439 346,441 344 C 442 341,444 336,444 334 C 445 332,447 327,448 324 C 449 322,450 317,451 313 C 452 309,454 304,454 302 C 455 299,456 293,457 288 C 458 284,459 277,460 272 C 461 265,461 257,461 228 C 462 192,462 191,459 178 C 454 154,452 148,447 138 C 445 135,444 132,444 131 C 444 130,442 128,440 125 C 430 110,426 105,411 94 C 403 89,393 85,378 82 C 363 80,355 79,342 82 C 337 82,330 83,326 84 C 322 85,316 86,313 88 C 310 89,306 90,305 90 C 303 90,300 91,297 93 C 294 95,290 96,289 96 C 288 96,286 97,284 98 C 279 101,261 106,255 106 C 248 106,239 101,234 94 C 229 88,222 75,222 71 C 222 70,221 66,220 61 C 218 55,217 48,216 38 C 215 22,215 21,209 15 L 206 12 181 12 C 167 12,155 12,154 13 M 169 34 C 167 36,168 56,171 65 C 172 69,173 74,174 78 C 175 82,176 87,178 90 C 179 93,180 97,180 99 C 181 101,182 105,184 107 C 185 110,186 112,186 113 C 186 114,191 124,198 138 C 199 141,201 144,202 145 C 203 146,204 147,204 147 C 204 148,205 150,207 153 C 213 161,214 162,217 170 C 220 176,222 182,226 197 C 228 203,227 225,226 231 C 225 234,223 239,222 243 C 221 248,218 257,214 263 C 210 271,208 274,204 279 C 199 286,184 302,178 307 C 176 308,172 311,170 313 C 167 314,163 317,161 318 C 158 320,156 322,155 322 C 154 323,152 324,151 324 C 149 325,148 326,147 326 C 147 327,144 328,141 330 C 138 331,134 333,133 334 C 132 335,130 336,129 336 C 128 336,126 337,124 339 C 121 341,119 342,118 342 C 118 342,115 344,113 345 C 111 347,107 350,105 352 C 88 365,73 382,66 398 C 64 400,62 404,62 405 C 57 414,55 418,54 423 C 53 425,52 429,51 432 C 50 434,49 439,48 443 C 48 446,47 450,46 452 C 45 456,49 458,60 458 C 68 459,70 459,71 457 C 73 455,78 443,78 440 C 78 438,82 427,86 420 C 98 396,112 391,136 400 C 140 402,143 404,144 404 C 145 405,148 406,150 407 C 152 408,156 410,157 412 C 159 413,161 414,161 414 C 162 414,164 415,166 416 C 174 423,189 431,197 432 C 204 432,205 431,200 427 C 196 424,195 422,198 418 C 199 417,203 412,206 407 C 219 387,256 350,271 341 C 272 340,276 338,278 336 C 280 334,284 332,285 331 C 286 330,289 329,290 328 C 294 325,298 323,311 317 C 329 308,332 306,334 306 C 335 306,338 305,341 303 C 344 302,349 300,352 300 C 355 299,359 298,361 297 C 364 296,368 295,370 294 C 373 294,380 293,386 291 C 392 290,403 288,410 288 C 430 287,430 287,433 290 C 436 293,436 293,437 283 C 442 243,443 223,440 204 C 440 196,438 185,438 180 C 438 175,436 168,434 165 C 433 161,432 157,432 156 C 432 155,431 152,429 148 C 427 145,426 142,426 142 C 426 140,417 127,412 122 C 406 116,395 108,392 108 C 392 108,388 107,385 105 C 380 102,380 102,357 102 C 336 102,334 103,328 105 C 325 106,320 107,317 108 C 314 109,310 110,308 111 C 307 112,304 113,301 114 C 298 115,296 116,294 117 C 293 117,286 120,280 122 C 268 126,268 126,254 126 C 242 125,241 125,234 122 C 225 117,213 104,210 96 C 209 95,208 92,207 91 C 206 90,204 86,204 83 C 203 80,202 76,201 73 C 200 71,198 62,197 54 C 195 37,194 36,191 34 C 188 32,171 32,169 34 M 428 302 C 427 302,426 306,426 309 C 426 313,425 315,423 317 C 421 319,420 322,420 324 C 419 327,418 330,417 330 C 416 332,414 334,414 337 C 413 340,411 342,410 343 C 410 344,408 346,407 348 C 406 351,404 354,402 356 C 401 358,399 361,398 363 C 389 376,366 398,358 402 C 356 403,355 404,355 405 C 355 406,353 407,350 408 C 347 409,346 410,346 412 C 346 415,351 415,354 411 C 356 409,358 408,359 408 C 360 408,362 407,363 406 C 365 404,366 403,367 403 C 370 403,397 376,405 365 C 406 363,408 360,410 358 C 411 356,413 352,414 349 C 416 346,417 344,418 344 C 418 343,420 341,420 338 C 421 335,423 332,424 330 C 425 329,426 325,426 322 C 427 318,428 316,430 314 C 432 310,433 305,431 302 C 430 300,429 300,428 302 M 337 415 C 334 416,334 418,336 419 C 338 421,342 419,342 416 C 342 414,340 414,337 415 M 321 422 C 320 424,322 425,326 425 C 328 425,330 424,330 423 C 330 421,323 420,321 422 M 303 428 C 301 429,303 431,308 431 C 312 431,315 429,312 428 C 310 427,305 427,303 428 M 206 433 C 206 435,212 437,219 438 C 228 438,286 437,288 436 C 289 435,289 435,288 434 C 287 433,206 432,206 433"/></svg>
